<?xml version="1.0" encoding="UTF-8" standalone="no"?>
<svg width="181.328mm" height="41.275mm"
 viewBox="0 0 514 117"
 xmlns="http://www.w3.org/2000/svg" xmlns:xlink="http://www.w3.org/1999/xlink" version="1.2" baseProfile="tiny">
<title>12 Tone Row 1</title>
<desc>Dorico</desc>
<defs>
</defs>
<g fill="none" stroke="black" stroke-width="1" fill-rule="evenodd" stroke-linecap="square" stroke-linejoin="bevel" >

<g fill="none" stroke="#000000" stroke-opacity="1" stroke-width="0.640621" stroke-linecap="butt" stroke-linejoin="miter" stroke-miterlimit="2" transform="matrix(1,0,0,1,-2562,-60)"
font-family=".AppleSystemUIFont" font-size="13" font-weight="400" font-style="normal" 
>
<polyline fill="none" vector-effect="none" points="2577.12,162.499 3066.13,162.499 " />
<polyline fill="none" vector-effect="none" points="2577.12,152.249 3066.13,152.249 " />
<polyline fill="none" vector-effect="none" points="2577.12,167.624 3066.13,167.624 " />
<polyline fill="none" vector-effect="none" points="2577.12,157.374 3066.13,157.374 " />
<polyline fill="none" vector-effect="none" points="2577.12,111.25 3066.13,111.25 " />
<polyline fill="none" vector-effect="none" points="2577.12,147.125 3066.13,147.125 " />
<polyline fill="none" vector-effect="none" points="2577.12,116.375 3066.13,116.375 " />
<polyline fill="none" vector-effect="none" points="2577.12,106.125 3066.13,106.125 " />
<polyline fill="none" vector-effect="none" points="2577.12,101 3066.13,101 " />
<polyline fill="none" vector-effect="none" points="2577.12,95.8748 3066.13,95.8748 " />
</g>

<g fill="none" stroke="#000000" stroke-opacity="1" stroke-width="1.02499" stroke-linecap="butt" stroke-linejoin="miter" stroke-miterlimit="2" transform="matrix(1,0,0,1,-2562,-60)"
font-family=".AppleSystemUIFont" font-size="13" font-weight="400" font-style="normal" 
>
<polyline fill="none" vector-effect="none" points="2760.3,95.5545 2760.3,167.945 " />
<polyline fill="none" vector-effect="none" points="2908.59,95.5545 2908.59,167.945 " />
<polyline fill="none" vector-effect="none" points="3060.49,95.5545 3060.49,167.945 " />
</g>

<g fill="none" stroke="#000000" stroke-opacity="1" stroke-width="2.56249" stroke-linecap="butt" stroke-linejoin="miter" stroke-miterlimit="2" transform="matrix(1,0,0,1,-2562,-60)"
font-family=".AppleSystemUIFont" font-size="13" font-weight="400" font-style="normal" 
>
<polyline fill="none" vector-effect="none" points="3064.84,95.5545 3064.84,167.945 " />
</g>

<g fill="none" stroke="#000000" stroke-opacity="1" stroke-width="1.02499" stroke-linecap="butt" stroke-linejoin="miter" stroke-miterlimit="2" transform="matrix(1,0,0,1,-2562,-60)"
font-family=".AppleSystemUIFont" font-size="13" font-weight="400" font-style="normal" 
>
<polyline fill="none" vector-effect="none" points="2576.61,95.5545 2576.61,167.945 " />
</g>

<g fill="none" stroke="#000000" stroke-opacity="1" stroke-width="2.56249" stroke-linecap="butt" stroke-linejoin="miter" stroke-miterlimit="2" transform="matrix(1,0,0,1,-2562,-60)"
font-family=".AppleSystemUIFont" font-size="13" font-weight="400" font-style="normal" 
>
<polyline fill="none" vector-effect="none" points="2600.21,95.5545 2600.21,167.945 " />
</g>

<g fill="none" stroke="#000000" stroke-opacity="1" stroke-width="1.02499" stroke-linecap="butt" stroke-linejoin="miter" stroke-miterlimit="2" transform="matrix(1,0,0,1,-2562,-60)"
font-family=".AppleSystemUIFont" font-size="13" font-weight="400" font-style="normal" 
>
<polyline fill="none" vector-effect="none" points="2604.57,95.5545 2604.57,167.945 " />
</g>

<g fill="none" stroke="#000000" stroke-opacity="1" stroke-width="0.614996" stroke-linecap="butt" stroke-linejoin="miter" stroke-miterlimit="2" transform="matrix(1,0,0,1,-2562,-60)"
font-family=".AppleSystemUIFont" font-size="13" font-weight="400" font-style="normal" 
>
<polyline fill="none" vector-effect="none" points="2628.17,98.4373 2628.17,115.411 " />
<polyline fill="none" vector-effect="none" points="2662.68,103.562 2662.68,120.536 " />
</g>

<g fill="none" stroke="#000000" stroke-opacity="1" stroke-width="0.854162" stroke-linecap="butt" stroke-linejoin="miter" stroke-miterlimit="2" transform="matrix(1,0,0,1,-2562,-60)"
font-family=".AppleSystemUIFont" font-size="13" font-weight="400" font-style="normal" 
>
<polyline fill="none" vector-effect="none" points="2655.39,121.5 2665.04,121.5 " />
</g>

<g fill="none" stroke="#000000" stroke-opacity="1" stroke-width="0.614996" stroke-linecap="butt" stroke-linejoin="miter" stroke-miterlimit="2" transform="matrix(1,0,0,1,-2562,-60)"
font-family=".AppleSystemUIFont" font-size="13" font-weight="400" font-style="normal" 
>
<polyline fill="none" vector-effect="none" points="2776.46,103.562 2776.46,120.536 " />
</g>

<g fill="none" stroke="#000000" stroke-opacity="1" stroke-width="0.854162" stroke-linecap="butt" stroke-linejoin="miter" stroke-miterlimit="2" transform="matrix(1,0,0,1,-2562,-60)"
font-family=".AppleSystemUIFont" font-size="13" font-weight="400" font-style="normal" 
>
<polyline fill="none" vector-effect="none" points="2769.17,121.5 2778.82,121.5 " />
</g>

<g fill="none" stroke="#000000" stroke-opacity="1" stroke-width="0.614996" stroke-linecap="butt" stroke-linejoin="miter" stroke-miterlimit="2" transform="matrix(1,0,0,1,-2562,-60)"
font-family=".AppleSystemUIFont" font-size="13" font-weight="400" font-style="normal" 
>
<polyline fill="none" vector-effect="none" points="2810.97,93.9529 2810.97,110.286 " />
<polyline fill="none" vector-effect="none" points="2880,101 2880,117.974 " />
<polyline fill="none" vector-effect="none" points="2923.23,106.125 2923.23,123.099 " />
</g>

<g fill="none" stroke="#000000" stroke-opacity="1" stroke-width="0.854162" stroke-linecap="butt" stroke-linejoin="miter" stroke-miterlimit="2" transform="matrix(1,0,0,1,-2562,-60)"
font-family=".AppleSystemUIFont" font-size="13" font-weight="400" font-style="normal" 
>
<polyline fill="none" vector-effect="none" points="2914.75,121.5 2925.59,121.5 " />
</g>

<g fill="none" stroke="#000000" stroke-opacity="1" stroke-width="0.614996" stroke-linecap="butt" stroke-linejoin="miter" stroke-miterlimit="2" transform="matrix(1,0,0,1,-2562,-60)"
font-family=".AppleSystemUIFont" font-size="13" font-weight="400" font-style="normal" 
>
<polyline fill="none" vector-effect="none" points="3026.77,101 3026.77,117.974 " />
<polyline fill="none" vector-effect="none" points="2691.07,148.067 2691.07,165.062 " />
<polyline fill="none" vector-effect="none" points="2725.58,148.067 2725.58,165.062 " />
<polyline fill="none" vector-effect="none" points="2839.36,150.63 2839.36,167.624 " />
<polyline fill="none" vector-effect="none" points="2951.62,153.192 2951.62,169.546 " />
<polyline fill="none" vector-effect="none" points="2986.13,153.192 2986.13,169.546 " />
</g>

<g fill="none" stroke="#000000" stroke-opacity="1" stroke-width="1" stroke-linecap="square" stroke-linejoin="bevel" transform="matrix(0.5,0,0,0.5,59.7353,56.3747)"
font-family="Bravura" font-size="41" font-weight="400" font-style="normal" 
>
</g>

<g fill="#000000" fill-opacity="1" stroke="none" transform="matrix(0.5,0,0,0.5,59.7353,56.3747)"
font-family="Bravura" font-size="41" font-weight="400" font-style="normal" 
>
<path vector-effect="none" fill-rule="nonzero" d="M4.428,5.74 C8.487,5.74 13.489,1.968 13.489,-1.927 C13.489,-4.223 11.644,-5.74 9.02,-5.74 C4.018,-5.74 0,-2.009 0,1.927 C0,4.305 1.968,5.74 4.428,5.74 "/>
</g>

<g fill="none" stroke="#000000" stroke-opacity="1" stroke-width="1" stroke-linecap="square" stroke-linejoin="bevel" transform="matrix(0.5,0,0,0.5,59.7353,56.3747)"
font-family="Bravura" font-size="41" font-weight="400" font-style="normal" 
>
<text fill="#000000" fill-opacity="1" stroke="none" xml:space="preserve" x="0" y="0" font-family=".AppleSystemUIFont" font-size="13" font-weight="400" font-style="normal" 
 ></text>
</g>

<g fill="none" stroke="#000000" stroke-opacity="1" stroke-width="1" stroke-linecap="square" stroke-linejoin="bevel" transform="matrix(0.5,0,0,0.5,87.8653,61.4997)"
font-family="Bravura" font-size="41" font-weight="400" font-style="normal" 
>
</g>

<g fill="#000000" fill-opacity="1" stroke="none" transform="matrix(0.5,0,0,0.5,87.8653,61.4997)"
font-family="Bravura" font-size="41" font-weight="400" font-style="normal" 
>
<path vector-effect="none" fill-rule="nonzero" d="M6.888,1.845 C6.642,2.665 4.715,3.485 3.772,3.485 C3.526,3.485 3.321,3.403 3.28,3.28 C3.198,3.116 3.157,2.214 3.157,1.23 C3.157,-0.041 3.198,-1.476 3.28,-1.804 C3.362,-2.501 5.248,-3.362 6.273,-3.362 C6.56,-3.362 6.806,-3.28 6.888,-3.116 C6.97,-2.911 7.052,-1.886 7.052,-0.779 C7.052,0.328 6.97,1.476 6.888,1.845 M9.717,-4.838 C10.004,-4.961 10.209,-5.289 10.209,-5.535 L10.209,-8.446 C10.209,-8.651 10.086,-8.774 9.922,-8.774 C9.84,-8.774 9.799,-8.774 9.717,-8.733 C9.717,-8.733 8.897,-8.405 8.692,-8.364 C8.405,-8.364 8.118,-8.569 8.118,-8.897 L8.118,-13.899 C8.118,-14.145 7.872,-14.35 7.544,-14.35 C7.134,-14.35 6.888,-14.145 6.888,-13.899 L6.888,-8.569 C6.847,-8.159 6.724,-7.626 6.355,-7.38 C5.863,-7.093 4.469,-6.519 3.772,-6.355 C3.403,-6.355 3.28,-6.847 3.28,-7.175 L3.28,-12.095 C3.28,-12.341 2.993,-12.546 2.706,-12.546 C2.296,-12.546 2.05,-12.341 2.05,-12.095 L2.05,-6.56 C2.05,-5.986 1.804,-5.576 1.558,-5.453 C1.312,-5.33 0.492,-5.002 0.492,-5.002 C0.205,-4.92 0,-4.592 0,-4.346 L0,-1.435 C0,-1.189 0.123,-1.066 0.328,-1.066 C0.492,-1.066 1.271,-1.435 1.394,-1.517 C1.435,-1.517 1.476,-1.558 1.517,-1.558 C1.804,-1.558 2.05,-1.148 2.05,-0.82 L2.05,3.239 C2.05,3.69 1.845,4.059 1.599,4.182 C1.353,4.264 0.492,4.633 0.492,4.633 C0.205,4.715 0,5.043 0,5.289 L0,8.2 C0,8.446 0.123,8.569 0.328,8.569 C0.369,8.569 0.451,8.528 0.492,8.528 C0.492,8.528 1.066,8.282 1.435,8.159 C1.476,8.118 1.517,8.118 1.558,8.118 C1.845,8.118 2.05,8.569 2.05,8.774 L2.05,13.817 C2.05,14.063 2.296,14.268 2.583,14.268 C2.993,14.268 3.28,14.063 3.28,13.817 L3.28,8.118 C3.28,7.585 3.485,7.298 3.69,7.216 L6.191,6.191 C6.232,6.191 6.314,6.15 6.355,6.15 C6.683,6.15 6.888,6.642 6.888,6.888 L6.888,12.013 C6.888,12.259 7.134,12.464 7.421,12.464 C7.872,12.464 8.118,12.259 8.118,12.013 L8.118,6.191 C8.118,5.863 8.282,5.371 8.569,5.248 C8.856,5.125 9.717,4.797 9.717,4.797 C10.004,4.674 10.209,4.346 10.209,4.1 L10.209,1.189 C10.209,0.984 10.086,0.861 9.922,0.861 C9.84,0.861 9.799,0.861 9.717,0.902 L8.651,1.312 C8.405,1.312 8.118,1.066 8.118,0.574 L8.118,-3.239 C8.118,-3.526 8.323,-4.305 8.651,-4.428 L9.717,-4.838"/>
</g>

<g fill="none" stroke="#000000" stroke-opacity="1" stroke-width="1" stroke-linecap="square" stroke-linejoin="bevel" transform="matrix(0.5,0,0,0.5,87.8653,61.4997)"
font-family="Bravura" font-size="41" font-weight="400" font-style="normal" 
>
<text fill="#000000" fill-opacity="1" stroke="none" xml:space="preserve" x="0" y="0" font-family=".AppleSystemUIFont" font-size="13" font-weight="400" font-style="normal" 
 ></text>
</g>

<g fill="none" stroke="#000000" stroke-opacity="1" stroke-width="1" stroke-linecap="square" stroke-linejoin="bevel" transform="matrix(0.5,0,0,0.5,94.2481,61.4997)"
font-family="Bravura" font-size="41" font-weight="400" font-style="normal" 
>
</g>

<g fill="#000000" fill-opacity="1" stroke="none" transform="matrix(0.5,0,0,0.5,94.2481,61.4997)"
font-family="Bravura" font-size="41" font-weight="400" font-style="normal" 
>
<path vector-effect="none" fill-rule="nonzero" d="M4.428,5.74 C8.487,5.74 13.489,1.968 13.489,-1.927 C13.489,-4.223 11.644,-5.74 9.02,-5.74 C4.018,-5.74 0,-2.009 0,1.927 C0,4.305 1.968,5.74 4.428,5.74 "/>
</g>

<g fill="none" stroke="#000000" stroke-opacity="1" stroke-width="1" stroke-linecap="square" stroke-linejoin="bevel" transform="matrix(0.5,0,0,0.5,94.2481,61.4997)"
font-family="Bravura" font-size="41" font-weight="400" font-style="normal" 
>
<text fill="#000000" fill-opacity="1" stroke="none" xml:space="preserve" x="0" y="0" font-family=".AppleSystemUIFont" font-size="13" font-weight="400" font-style="normal" 
 ></text>
</g>

<g fill="none" stroke="#000000" stroke-opacity="1" stroke-width="1" stroke-linecap="square" stroke-linejoin="bevel" transform="matrix(0.5,0,0,0.5,128.761,46.1247)"
font-family="Bravura" font-size="41" font-weight="400" font-style="normal" 
>
</g>

<g fill="#000000" fill-opacity="1" stroke="none" transform="matrix(0.5,0,0,0.5,128.761,46.1247)"
font-family="Bravura" font-size="41" font-weight="400" font-style="normal" 
>
<path vector-effect="none" fill-rule="nonzero" d="M11.562,-0.984 L11.562,-4.756 C11.562,-5.371 11.07,-5.822 10.496,-5.822 L1.066,-5.822 C0.451,-5.822 0,-5.371 0,-4.756 L0,-0.984 C0,-0.41 0.451,0.082 1.066,0.082 L10.496,0.082 C11.07,0.082 11.562,-0.41 11.562,-0.984 "/>
</g>

<g fill="none" stroke="#000000" stroke-opacity="1" stroke-width="1" stroke-linecap="square" stroke-linejoin="bevel" transform="matrix(0.5,0,0,0.5,128.761,46.1247)"
font-family="Bravura" font-size="41" font-weight="400" font-style="normal" 
>
<text fill="#000000" fill-opacity="1" stroke="none" xml:space="preserve" x="0" y="0" font-family=".AppleSystemUIFont" font-size="13" font-weight="400" font-style="normal" 
 ></text>
</g>

<g fill="none" stroke="#000000" stroke-opacity="1" stroke-width="1" stroke-linecap="square" stroke-linejoin="bevel" transform="matrix(0.5,0,0,0.5,203.306,61.4997)"
font-family="Bravura" font-size="41" font-weight="400" font-style="normal" 
>
</g>

<g fill="#000000" fill-opacity="1" stroke="none" transform="matrix(0.5,0,0,0.5,203.306,61.4997)"
font-family="Bravura" font-size="41" font-weight="400" font-style="normal" 
>
<path vector-effect="none" fill-rule="nonzero" d="M1.517,-1.599 C1.517,-2.173 4.018,-3.239 5.002,-3.239 C5.248,-3.239 5.371,-3.198 5.371,-3.034 L5.371,1.189 C5.371,1.927 3.034,2.87 2.009,2.87 C1.722,2.87 1.517,2.788 1.517,2.624 L1.517,-1.599 M5.781,-7.421 C5.699,-7.421 5.658,-7.38 5.617,-7.38 C5.617,-7.38 2.993,-6.437 1.927,-6.437 C1.681,-6.437 1.517,-6.478 1.517,-6.642 L1.517,-13.489 C1.517,-13.776 1.271,-13.981 1.025,-13.981 L0.492,-13.981 C0.205,-13.981 0,-13.776 0,-13.489 L0,7.626 C0,7.872 0.123,7.995 0.328,7.995 C0.369,7.995 0.574,7.954 0.615,7.913 C1.189,7.667 3.485,6.683 4.674,6.683 C5.084,6.683 5.371,6.806 5.371,7.134 L5.371,13.243 C5.371,13.53 5.576,13.735 5.863,13.735 L6.396,13.735 C6.642,13.735 6.888,13.53 6.888,13.243 L6.888,-7.339 C6.888,-7.544 6.724,-7.667 6.56,-7.667 C6.519,-7.667 6.437,-7.667 6.396,-7.626 L5.781,-7.421"/>
</g>

<g fill="none" stroke="#000000" stroke-opacity="1" stroke-width="1" stroke-linecap="square" stroke-linejoin="bevel" transform="matrix(0.5,0,0,0.5,203.306,61.4997)"
font-family="Bravura" font-size="41" font-weight="400" font-style="normal" 
>
<text fill="#000000" fill-opacity="1" stroke="none" xml:space="preserve" x="0" y="0" font-family=".AppleSystemUIFont" font-size="13" font-weight="400" font-style="normal" 
 ></text>
</g>

<g fill="none" stroke="#000000" stroke-opacity="1" stroke-width="1" stroke-linecap="square" stroke-linejoin="bevel" transform="matrix(0.5,0,0,0.5,208.025,61.4997)"
font-family="Bravura" font-size="41" font-weight="400" font-style="normal" 
>
</g>

<g fill="#000000" fill-opacity="1" stroke="none" transform="matrix(0.5,0,0,0.5,208.025,61.4997)"
font-family="Bravura" font-size="41" font-weight="400" font-style="normal" 
>
<path vector-effect="none" fill-rule="nonzero" d="M4.428,5.74 C8.487,5.74 13.489,1.968 13.489,-1.927 C13.489,-4.223 11.644,-5.74 9.02,-5.74 C4.018,-5.74 0,-2.009 0,1.927 C0,4.305 1.968,5.74 4.428,5.74 "/>
</g>

<g fill="none" stroke="#000000" stroke-opacity="1" stroke-width="1" stroke-linecap="square" stroke-linejoin="bevel" transform="matrix(0.5,0,0,0.5,208.025,61.4997)"
font-family="Bravura" font-size="41" font-weight="400" font-style="normal" 
>
<text fill="#000000" fill-opacity="1" stroke="none" xml:space="preserve" x="0" y="0" font-family=".AppleSystemUIFont" font-size="13" font-weight="400" font-style="normal" 
 ></text>
</g>

<g fill="none" stroke="#000000" stroke-opacity="1" stroke-width="1" stroke-linecap="square" stroke-linejoin="bevel" transform="matrix(0.5,0,0,0.5,242.538,51.2497)"
font-family="Bravura" font-size="41" font-weight="400" font-style="normal" 
>
</g>

<g fill="#000000" fill-opacity="1" stroke="none" transform="matrix(0.5,0,0,0.5,242.538,51.2497)"
font-family="Bravura" font-size="41" font-weight="400" font-style="normal" 
>
<path vector-effect="none" fill-rule="nonzero" d="M4.428,5.74 C8.487,5.74 13.489,1.968 13.489,-1.927 C13.489,-4.223 11.644,-5.74 9.02,-5.74 C4.018,-5.74 0,-2.009 0,1.927 C0,4.305 1.968,5.74 4.428,5.74 "/>
</g>

<g fill="none" stroke="#000000" stroke-opacity="1" stroke-width="1" stroke-linecap="square" stroke-linejoin="bevel" transform="matrix(0.5,0,0,0.5,242.538,51.2497)"
font-family="Bravura" font-size="41" font-weight="400" font-style="normal" 
>
<text fill="#000000" fill-opacity="1" stroke="none" xml:space="preserve" x="0" y="0" font-family=".AppleSystemUIFont" font-size="13" font-weight="400" font-style="normal" 
 ></text>
</g>

<g fill="none" stroke="#000000" stroke-opacity="1" stroke-width="1" stroke-linecap="square" stroke-linejoin="bevel" transform="matrix(0.5,0,0,0.5,277.035,46.1247)"
font-family="Bravura" font-size="41" font-weight="400" font-style="normal" 
>
</g>

<g fill="#000000" fill-opacity="1" stroke="none" transform="matrix(0.5,0,0,0.5,277.035,46.1247)"
font-family="Bravura" font-size="41" font-weight="400" font-style="normal" 
>
<path vector-effect="none" fill-rule="nonzero" d="M3.198,1.558 C3.854,2.378 4.428,3.157 4.961,4.018 C5.043,4.182 5.207,4.51 5.207,4.592 C5.207,4.633 5.207,4.715 5.166,4.756 C5.084,4.92 4.92,4.961 4.715,4.961 C4.551,4.961 4.223,4.879 4.059,4.838 C3.854,4.838 3.608,4.715 3.403,4.715 C1.64,4.715 0.041,6.478 0.041,8.651 C0.041,10.701 1.804,12.71 4.797,15.006 C5.125,15.252 5.535,15.375 5.863,15.375 C6.15,15.375 6.437,15.293 6.478,15.129 C6.519,15.006 6.56,14.924 6.56,14.842 C6.56,14.473 6.232,14.145 5.904,13.858 C5.371,13.858 4.92,12.751 4.838,12.382 C4.715,12.054 4.674,11.685 4.674,11.316 C4.674,9.635 5.535,8.323 7.257,8.323 C8.446,8.323 9.799,8.774 10.455,9.02 C10.496,9.02 10.537,9.061 10.578,9.061 C10.701,9.102 10.783,9.102 10.865,9.102 C10.988,9.102 11.07,9.061 11.07,8.938 C11.07,8.446 10.004,7.093 9.553,6.601 C7.995,4.715 6.724,3.198 6.724,0.902 C6.724,0.738 6.765,0.533 6.765,0.369 C6.929,-2.009 8.405,-3.977 9.471,-5.658 C9.594,-5.863 9.635,-6.068 9.635,-6.273 C9.635,-6.683 9.471,-7.052 9.471,-7.052 C9.471,-7.052 3.403,-14.268 2.706,-14.965 C2.501,-15.17 2.214,-15.293 1.968,-15.293 C1.558,-15.293 1.148,-15.006 1.148,-14.432 C1.148,-14.227 1.189,-14.022 1.312,-13.776 C1.476,-13.325 3.813,-11.234 3.813,-8.282 C3.813,-6.765 3.198,-5.002 1.353,-3.075 C0.943,-2.665 0.779,-2.214 0.779,-1.886 C0.779,-1.312 1.189,-0.902 1.189,-0.902 L3.198,1.558"/>
</g>

<g fill="none" stroke="#000000" stroke-opacity="1" stroke-width="1" stroke-linecap="square" stroke-linejoin="bevel" transform="matrix(0.5,0,0,0.5,277.035,46.1247)"
font-family="Bravura" font-size="41" font-weight="400" font-style="normal" 
>
<text fill="#000000" fill-opacity="1" stroke="none" xml:space="preserve" x="0" y="0" font-family=".AppleSystemUIFont" font-size="13" font-weight="400" font-style="normal" 
 ></text>
</g>

<g fill="none" stroke="#000000" stroke-opacity="1" stroke-width="1" stroke-linecap="square" stroke-linejoin="bevel" transform="matrix(0.5,0,0,0.5,311.563,58.9372)"
font-family="Bravura" font-size="41" font-weight="400" font-style="normal" 
>
</g>

<g fill="#000000" fill-opacity="1" stroke="none" transform="matrix(0.5,0,0,0.5,311.563,58.9372)"
font-family="Bravura" font-size="41" font-weight="400" font-style="normal" 
>
<path vector-effect="none" fill-rule="nonzero" d="M4.428,5.74 C8.487,5.74 13.489,1.968 13.489,-1.927 C13.489,-4.223 11.644,-5.74 9.02,-5.74 C4.018,-5.74 0,-2.009 0,1.927 C0,4.305 1.968,5.74 4.428,5.74 "/>
</g>

<g fill="none" stroke="#000000" stroke-opacity="1" stroke-width="1" stroke-linecap="square" stroke-linejoin="bevel" transform="matrix(0.5,0,0,0.5,311.563,58.9372)"
font-family="Bravura" font-size="41" font-weight="400" font-style="normal" 
>
<text fill="#000000" fill-opacity="1" stroke="none" xml:space="preserve" x="0" y="0" font-family=".AppleSystemUIFont" font-size="13" font-weight="400" font-style="normal" 
 ></text>
</g>

<g fill="none" stroke="#000000" stroke-opacity="1" stroke-width="1" stroke-linecap="square" stroke-linejoin="bevel" transform="matrix(0.5,0,0,0.5,354.799,64.0621)"
font-family="Bravura" font-size="41" font-weight="400" font-style="normal" 
>
</g>

<g fill="#000000" fill-opacity="1" stroke="none" transform="matrix(0.5,0,0,0.5,354.799,64.0621)"
font-family="Bravura" font-size="41" font-weight="400" font-style="normal" 
>
<path vector-effect="none" fill-rule="nonzero" d="M4.428,5.74 C8.487,5.74 13.489,1.968 13.489,-1.927 C13.489,-4.223 11.644,-5.74 9.02,-5.74 C4.018,-5.74 0,-2.009 0,1.927 C0,4.305 1.968,5.74 4.428,5.74 "/>
</g>

<g fill="none" stroke="#000000" stroke-opacity="1" stroke-width="1" stroke-linecap="square" stroke-linejoin="bevel" transform="matrix(0.5,0,0,0.5,354.799,64.0621)"
font-family="Bravura" font-size="41" font-weight="400" font-style="normal" 
>
<text fill="#000000" fill-opacity="1" stroke="none" xml:space="preserve" x="0" y="0" font-family=".AppleSystemUIFont" font-size="13" font-weight="400" font-style="normal" 
 ></text>
</g>

<g fill="none" stroke="#000000" stroke-opacity="1" stroke-width="1" stroke-linecap="square" stroke-linejoin="bevel" transform="matrix(0.5,0,0,0.5,389.296,46.1247)"
font-family="Bravura" font-size="41" font-weight="400" font-style="normal" 
>
</g>

<g fill="#000000" fill-opacity="1" stroke="none" transform="matrix(0.5,0,0,0.5,389.296,46.1247)"
font-family="Bravura" font-size="41" font-weight="400" font-style="normal" 
>
<path vector-effect="none" fill-rule="nonzero" d="M3.198,1.558 C3.854,2.378 4.428,3.157 4.961,4.018 C5.043,4.182 5.207,4.51 5.207,4.592 C5.207,4.633 5.207,4.715 5.166,4.756 C5.084,4.92 4.92,4.961 4.715,4.961 C4.551,4.961 4.223,4.879 4.059,4.838 C3.854,4.838 3.608,4.715 3.403,4.715 C1.64,4.715 0.041,6.478 0.041,8.651 C0.041,10.701 1.804,12.71 4.797,15.006 C5.125,15.252 5.535,15.375 5.863,15.375 C6.15,15.375 6.437,15.293 6.478,15.129 C6.519,15.006 6.56,14.924 6.56,14.842 C6.56,14.473 6.232,14.145 5.904,13.858 C5.371,13.858 4.92,12.751 4.838,12.382 C4.715,12.054 4.674,11.685 4.674,11.316 C4.674,9.635 5.535,8.323 7.257,8.323 C8.446,8.323 9.799,8.774 10.455,9.02 C10.496,9.02 10.537,9.061 10.578,9.061 C10.701,9.102 10.783,9.102 10.865,9.102 C10.988,9.102 11.07,9.061 11.07,8.938 C11.07,8.446 10.004,7.093 9.553,6.601 C7.995,4.715 6.724,3.198 6.724,0.902 C6.724,0.738 6.765,0.533 6.765,0.369 C6.929,-2.009 8.405,-3.977 9.471,-5.658 C9.594,-5.863 9.635,-6.068 9.635,-6.273 C9.635,-6.683 9.471,-7.052 9.471,-7.052 C9.471,-7.052 3.403,-14.268 2.706,-14.965 C2.501,-15.17 2.214,-15.293 1.968,-15.293 C1.558,-15.293 1.148,-15.006 1.148,-14.432 C1.148,-14.227 1.189,-14.022 1.312,-13.776 C1.476,-13.325 3.813,-11.234 3.813,-8.282 C3.813,-6.765 3.198,-5.002 1.353,-3.075 C0.943,-2.665 0.779,-2.214 0.779,-1.886 C0.779,-1.312 1.189,-0.902 1.189,-0.902 L3.198,1.558"/>
</g>

<g fill="none" stroke="#000000" stroke-opacity="1" stroke-width="1" stroke-linecap="square" stroke-linejoin="bevel" transform="matrix(0.5,0,0,0.5,389.296,46.1247)"
font-family="Bravura" font-size="41" font-weight="400" font-style="normal" 
>
<text fill="#000000" fill-opacity="1" stroke="none" xml:space="preserve" x="0" y="0" font-family=".AppleSystemUIFont" font-size="13" font-weight="400" font-style="normal" 
 ></text>
</g>

<g fill="none" stroke="#000000" stroke-opacity="1" stroke-width="1" stroke-linecap="square" stroke-linejoin="bevel" transform="matrix(0.5,0,0,0.5,423.809,46.1247)"
font-family="Bravura" font-size="41" font-weight="400" font-style="normal" 
>
</g>

<g fill="#000000" fill-opacity="1" stroke="none" transform="matrix(0.5,0,0,0.5,423.809,46.1247)"
font-family="Bravura" font-size="41" font-weight="400" font-style="normal" 
>
<path vector-effect="none" fill-rule="nonzero" d="M3.198,1.558 C3.854,2.378 4.428,3.157 4.961,4.018 C5.043,4.182 5.207,4.51 5.207,4.592 C5.207,4.633 5.207,4.715 5.166,4.756 C5.084,4.92 4.92,4.961 4.715,4.961 C4.551,4.961 4.223,4.879 4.059,4.838 C3.854,4.838 3.608,4.715 3.403,4.715 C1.64,4.715 0.041,6.478 0.041,8.651 C0.041,10.701 1.804,12.71 4.797,15.006 C5.125,15.252 5.535,15.375 5.863,15.375 C6.15,15.375 6.437,15.293 6.478,15.129 C6.519,15.006 6.56,14.924 6.56,14.842 C6.56,14.473 6.232,14.145 5.904,13.858 C5.371,13.858 4.92,12.751 4.838,12.382 C4.715,12.054 4.674,11.685 4.674,11.316 C4.674,9.635 5.535,8.323 7.257,8.323 C8.446,8.323 9.799,8.774 10.455,9.02 C10.496,9.02 10.537,9.061 10.578,9.061 C10.701,9.102 10.783,9.102 10.865,9.102 C10.988,9.102 11.07,9.061 11.07,8.938 C11.07,8.446 10.004,7.093 9.553,6.601 C7.995,4.715 6.724,3.198 6.724,0.902 C6.724,0.738 6.765,0.533 6.765,0.369 C6.929,-2.009 8.405,-3.977 9.471,-5.658 C9.594,-5.863 9.635,-6.068 9.635,-6.273 C9.635,-6.683 9.471,-7.052 9.471,-7.052 C9.471,-7.052 3.403,-14.268 2.706,-14.965 C2.501,-15.17 2.214,-15.293 1.968,-15.293 C1.558,-15.293 1.148,-15.006 1.148,-14.432 C1.148,-14.227 1.189,-14.022 1.312,-13.776 C1.476,-13.325 3.813,-11.234 3.813,-8.282 C3.813,-6.765 3.198,-5.002 1.353,-3.075 C0.943,-2.665 0.779,-2.214 0.779,-1.886 C0.779,-1.312 1.189,-0.902 1.189,-0.902 L3.198,1.558"/>
</g>

<g fill="none" stroke="#000000" stroke-opacity="1" stroke-width="1" stroke-linecap="square" stroke-linejoin="bevel" transform="matrix(0.5,0,0,0.5,423.809,46.1247)"
font-family="Bravura" font-size="41" font-weight="400" font-style="normal" 
>
<text fill="#000000" fill-opacity="1" stroke="none" xml:space="preserve" x="0" y="0" font-family=".AppleSystemUIFont" font-size="13" font-weight="400" font-style="normal" 
 ></text>
</g>

<g fill="none" stroke="#000000" stroke-opacity="1" stroke-width="1" stroke-linecap="square" stroke-linejoin="bevel" transform="matrix(0.5,0,0,0.5,451.955,58.9372)"
font-family="Bravura" font-size="41" font-weight="400" font-style="normal" 
>
</g>

<g fill="#000000" fill-opacity="1" stroke="none" transform="matrix(0.5,0,0,0.5,451.955,58.9372)"
font-family="Bravura" font-size="41" font-weight="400" font-style="normal" 
>
<path vector-effect="none" fill-rule="nonzero" d="M6.888,1.845 C6.642,2.665 4.715,3.485 3.772,3.485 C3.526,3.485 3.321,3.403 3.28,3.28 C3.198,3.116 3.157,2.214 3.157,1.23 C3.157,-0.041 3.198,-1.476 3.28,-1.804 C3.362,-2.501 5.248,-3.362 6.273,-3.362 C6.56,-3.362 6.806,-3.28 6.888,-3.116 C6.97,-2.911 7.052,-1.886 7.052,-0.779 C7.052,0.328 6.97,1.476 6.888,1.845 M9.717,-4.838 C10.004,-4.961 10.209,-5.289 10.209,-5.535 L10.209,-8.446 C10.209,-8.651 10.086,-8.774 9.922,-8.774 C9.84,-8.774 9.799,-8.774 9.717,-8.733 C9.717,-8.733 8.897,-8.405 8.692,-8.364 C8.405,-8.364 8.118,-8.569 8.118,-8.897 L8.118,-13.899 C8.118,-14.145 7.872,-14.35 7.544,-14.35 C7.134,-14.35 6.888,-14.145 6.888,-13.899 L6.888,-8.569 C6.847,-8.159 6.724,-7.626 6.355,-7.38 C5.863,-7.093 4.469,-6.519 3.772,-6.355 C3.403,-6.355 3.28,-6.847 3.28,-7.175 L3.28,-12.095 C3.28,-12.341 2.993,-12.546 2.706,-12.546 C2.296,-12.546 2.05,-12.341 2.05,-12.095 L2.05,-6.56 C2.05,-5.986 1.804,-5.576 1.558,-5.453 C1.312,-5.33 0.492,-5.002 0.492,-5.002 C0.205,-4.92 0,-4.592 0,-4.346 L0,-1.435 C0,-1.189 0.123,-1.066 0.328,-1.066 C0.492,-1.066 1.271,-1.435 1.394,-1.517 C1.435,-1.517 1.476,-1.558 1.517,-1.558 C1.804,-1.558 2.05,-1.148 2.05,-0.82 L2.05,3.239 C2.05,3.69 1.845,4.059 1.599,4.182 C1.353,4.264 0.492,4.633 0.492,4.633 C0.205,4.715 0,5.043 0,5.289 L0,8.2 C0,8.446 0.123,8.569 0.328,8.569 C0.369,8.569 0.451,8.528 0.492,8.528 C0.492,8.528 1.066,8.282 1.435,8.159 C1.476,8.118 1.517,8.118 1.558,8.118 C1.845,8.118 2.05,8.569 2.05,8.774 L2.05,13.817 C2.05,14.063 2.296,14.268 2.583,14.268 C2.993,14.268 3.28,14.063 3.28,13.817 L3.28,8.118 C3.28,7.585 3.485,7.298 3.69,7.216 L6.191,6.191 C6.232,6.191 6.314,6.15 6.355,6.15 C6.683,6.15 6.888,6.642 6.888,6.888 L6.888,12.013 C6.888,12.259 7.134,12.464 7.421,12.464 C7.872,12.464 8.118,12.259 8.118,12.013 L8.118,6.191 C8.118,5.863 8.282,5.371 8.569,5.248 C8.856,5.125 9.717,4.797 9.717,4.797 C10.004,4.674 10.209,4.346 10.209,4.1 L10.209,1.189 C10.209,0.984 10.086,0.861 9.922,0.861 C9.84,0.861 9.799,0.861 9.717,0.902 L8.651,1.312 C8.405,1.312 8.118,1.066 8.118,0.574 L8.118,-3.239 C8.118,-3.526 8.323,-4.305 8.651,-4.428 L9.717,-4.838"/>
</g>

<g fill="none" stroke="#000000" stroke-opacity="1" stroke-width="1" stroke-linecap="square" stroke-linejoin="bevel" transform="matrix(0.5,0,0,0.5,451.955,58.9372)"
font-family="Bravura" font-size="41" font-weight="400" font-style="normal" 
>
<text fill="#000000" fill-opacity="1" stroke="none" xml:space="preserve" x="0" y="0" font-family=".AppleSystemUIFont" font-size="13" font-weight="400" font-style="normal" 
 ></text>
</g>

<g fill="none" stroke="#000000" stroke-opacity="1" stroke-width="1" stroke-linecap="square" stroke-linejoin="bevel" transform="matrix(0.5,0,0,0.5,458.337,58.9372)"
font-family="Bravura" font-size="41" font-weight="400" font-style="normal" 
>
</g>

<g fill="#000000" fill-opacity="1" stroke="none" transform="matrix(0.5,0,0,0.5,458.337,58.9372)"
font-family="Bravura" font-size="41" font-weight="400" font-style="normal" 
>
<path vector-effect="none" fill-rule="nonzero" d="M4.428,5.74 C8.487,5.74 13.489,1.968 13.489,-1.927 C13.489,-4.223 11.644,-5.74 9.02,-5.74 C4.018,-5.74 0,-2.009 0,1.927 C0,4.305 1.968,5.74 4.428,5.74 "/>
</g>

<g fill="none" stroke="#000000" stroke-opacity="1" stroke-width="1" stroke-linecap="square" stroke-linejoin="bevel" transform="matrix(0.5,0,0,0.5,458.337,58.9372)"
font-family="Bravura" font-size="41" font-weight="400" font-style="normal" 
>
<text fill="#000000" fill-opacity="1" stroke="none" xml:space="preserve" x="0" y="0" font-family=".AppleSystemUIFont" font-size="13" font-weight="400" font-style="normal" 
 ></text>
</g>

<g fill="none" stroke="#000000" stroke-opacity="1" stroke-width="1" stroke-linecap="square" stroke-linejoin="bevel" transform="matrix(0.5,0,0,0.5,59.7353,97.3744)"
font-family="Bravura" font-size="41" font-weight="400" font-style="normal" 
>
</g>

<g fill="#000000" fill-opacity="1" stroke="none" transform="matrix(0.5,0,0,0.5,59.7353,97.3744)"
font-family="Bravura" font-size="41" font-weight="400" font-style="normal" 
>
<path vector-effect="none" fill-rule="nonzero" d="M11.562,-0.984 L11.562,-4.756 C11.562,-5.371 11.07,-5.822 10.496,-5.822 L1.066,-5.822 C0.451,-5.822 0,-5.371 0,-4.756 L0,-0.984 C0,-0.41 0.451,0.082 1.066,0.082 L10.496,0.082 C11.07,0.082 11.562,-0.41 11.562,-0.984 "/>
</g>

<g fill="none" stroke="#000000" stroke-opacity="1" stroke-width="1" stroke-linecap="square" stroke-linejoin="bevel" transform="matrix(0.5,0,0,0.5,59.7353,97.3744)"
font-family="Bravura" font-size="41" font-weight="400" font-style="normal" 
>
<text fill="#000000" fill-opacity="1" stroke="none" xml:space="preserve" x="0" y="0" font-family=".AppleSystemUIFont" font-size="13" font-weight="400" font-style="normal" 
 ></text>
</g>

<g fill="none" stroke="#000000" stroke-opacity="1" stroke-width="1" stroke-linecap="square" stroke-linejoin="bevel" transform="matrix(0.5,0,0,0.5,128.761,87.1245)"
font-family="Bravura" font-size="41" font-weight="400" font-style="normal" 
>
</g>

<g fill="#000000" fill-opacity="1" stroke="none" transform="matrix(0.5,0,0,0.5,128.761,87.1245)"
font-family="Bravura" font-size="41" font-weight="400" font-style="normal" 
>
<path vector-effect="none" fill-rule="nonzero" d="M4.428,5.74 C8.487,5.74 13.489,1.968 13.489,-1.927 C13.489,-4.223 11.644,-5.74 9.02,-5.74 C4.018,-5.74 0,-2.009 0,1.927 C0,4.305 1.968,5.74 4.428,5.74 "/>
</g>

<g fill="none" stroke="#000000" stroke-opacity="1" stroke-width="1" stroke-linecap="square" stroke-linejoin="bevel" transform="matrix(0.5,0,0,0.5,128.761,87.1245)"
font-family="Bravura" font-size="41" font-weight="400" font-style="normal" 
>
<text fill="#000000" fill-opacity="1" stroke="none" xml:space="preserve" x="0" y="0" font-family=".AppleSystemUIFont" font-size="13" font-weight="400" font-style="normal" 
 ></text>
</g>

<g fill="none" stroke="#000000" stroke-opacity="1" stroke-width="1" stroke-linecap="square" stroke-linejoin="bevel" transform="matrix(0.5,0,0,0.5,156.891,87.1245)"
font-family="Bravura" font-size="41" font-weight="400" font-style="normal" 
>
</g>

<g fill="#000000" fill-opacity="1" stroke="none" transform="matrix(0.5,0,0,0.5,156.891,87.1245)"
font-family="Bravura" font-size="41" font-weight="400" font-style="normal" 
>
<path vector-effect="none" fill-rule="nonzero" d="M6.888,1.845 C6.642,2.665 4.715,3.485 3.772,3.485 C3.526,3.485 3.321,3.403 3.28,3.28 C3.198,3.116 3.157,2.214 3.157,1.23 C3.157,-0.041 3.198,-1.476 3.28,-1.804 C3.362,-2.501 5.248,-3.362 6.273,-3.362 C6.56,-3.362 6.806,-3.28 6.888,-3.116 C6.97,-2.911 7.052,-1.886 7.052,-0.779 C7.052,0.328 6.97,1.476 6.888,1.845 M9.717,-4.838 C10.004,-4.961 10.209,-5.289 10.209,-5.535 L10.209,-8.446 C10.209,-8.651 10.086,-8.774 9.922,-8.774 C9.84,-8.774 9.799,-8.774 9.717,-8.733 C9.717,-8.733 8.897,-8.405 8.692,-8.364 C8.405,-8.364 8.118,-8.569 8.118,-8.897 L8.118,-13.899 C8.118,-14.145 7.872,-14.35 7.544,-14.35 C7.134,-14.35 6.888,-14.145 6.888,-13.899 L6.888,-8.569 C6.847,-8.159 6.724,-7.626 6.355,-7.38 C5.863,-7.093 4.469,-6.519 3.772,-6.355 C3.403,-6.355 3.28,-6.847 3.28,-7.175 L3.28,-12.095 C3.28,-12.341 2.993,-12.546 2.706,-12.546 C2.296,-12.546 2.05,-12.341 2.05,-12.095 L2.05,-6.56 C2.05,-5.986 1.804,-5.576 1.558,-5.453 C1.312,-5.33 0.492,-5.002 0.492,-5.002 C0.205,-4.92 0,-4.592 0,-4.346 L0,-1.435 C0,-1.189 0.123,-1.066 0.328,-1.066 C0.492,-1.066 1.271,-1.435 1.394,-1.517 C1.435,-1.517 1.476,-1.558 1.517,-1.558 C1.804,-1.558 2.05,-1.148 2.05,-0.82 L2.05,3.239 C2.05,3.69 1.845,4.059 1.599,4.182 C1.353,4.264 0.492,4.633 0.492,4.633 C0.205,4.715 0,5.043 0,5.289 L0,8.2 C0,8.446 0.123,8.569 0.328,8.569 C0.369,8.569 0.451,8.528 0.492,8.528 C0.492,8.528 1.066,8.282 1.435,8.159 C1.476,8.118 1.517,8.118 1.558,8.118 C1.845,8.118 2.05,8.569 2.05,8.774 L2.05,13.817 C2.05,14.063 2.296,14.268 2.583,14.268 C2.993,14.268 3.28,14.063 3.28,13.817 L3.28,8.118 C3.28,7.585 3.485,7.298 3.69,7.216 L6.191,6.191 C6.232,6.191 6.314,6.15 6.355,6.15 C6.683,6.15 6.888,6.642 6.888,6.888 L6.888,12.013 C6.888,12.259 7.134,12.464 7.421,12.464 C7.872,12.464 8.118,12.259 8.118,12.013 L8.118,6.191 C8.118,5.863 8.282,5.371 8.569,5.248 C8.856,5.125 9.717,4.797 9.717,4.797 C10.004,4.674 10.209,4.346 10.209,4.1 L10.209,1.189 C10.209,0.984 10.086,0.861 9.922,0.861 C9.84,0.861 9.799,0.861 9.717,0.902 L8.651,1.312 C8.405,1.312 8.118,1.066 8.118,0.574 L8.118,-3.239 C8.118,-3.526 8.323,-4.305 8.651,-4.428 L9.717,-4.838"/>
</g>

<g fill="none" stroke="#000000" stroke-opacity="1" stroke-width="1" stroke-linecap="square" stroke-linejoin="bevel" transform="matrix(0.5,0,0,0.5,156.891,87.1245)"
font-family="Bravura" font-size="41" font-weight="400" font-style="normal" 
>
<text fill="#000000" fill-opacity="1" stroke="none" xml:space="preserve" x="0" y="0" font-family=".AppleSystemUIFont" font-size="13" font-weight="400" font-style="normal" 
 ></text>
</g>

<g fill="none" stroke="#000000" stroke-opacity="1" stroke-width="1" stroke-linecap="square" stroke-linejoin="bevel" transform="matrix(0.5,0,0,0.5,163.274,87.1245)"
font-family="Bravura" font-size="41" font-weight="400" font-style="normal" 
>
</g>

<g fill="#000000" fill-opacity="1" stroke="none" transform="matrix(0.5,0,0,0.5,163.274,87.1245)"
font-family="Bravura" font-size="41" font-weight="400" font-style="normal" 
>
<path vector-effect="none" fill-rule="nonzero" d="M4.428,5.74 C8.487,5.74 13.489,1.968 13.489,-1.927 C13.489,-4.223 11.644,-5.74 9.02,-5.74 C4.018,-5.74 0,-2.009 0,1.927 C0,4.305 1.968,5.74 4.428,5.74 "/>
</g>

<g fill="none" stroke="#000000" stroke-opacity="1" stroke-width="1" stroke-linecap="square" stroke-linejoin="bevel" transform="matrix(0.5,0,0,0.5,163.274,87.1245)"
font-family="Bravura" font-size="41" font-weight="400" font-style="normal" 
>
<text fill="#000000" fill-opacity="1" stroke="none" xml:space="preserve" x="0" y="0" font-family=".AppleSystemUIFont" font-size="13" font-weight="400" font-style="normal" 
 ></text>
</g>

<g fill="none" stroke="#000000" stroke-opacity="1" stroke-width="1" stroke-linecap="square" stroke-linejoin="bevel" transform="matrix(0.5,0,0,0.5,208.025,97.3744)"
font-family="Bravura" font-size="41" font-weight="400" font-style="normal" 
>
</g>

<g fill="#000000" fill-opacity="1" stroke="none" transform="matrix(0.5,0,0,0.5,208.025,97.3744)"
font-family="Bravura" font-size="41" font-weight="400" font-style="normal" 
>
<path vector-effect="none" fill-rule="nonzero" d="M11.562,-0.984 L11.562,-4.756 C11.562,-5.371 11.07,-5.822 10.496,-5.822 L1.066,-5.822 C0.451,-5.822 0,-5.371 0,-4.756 L0,-0.984 C0,-0.41 0.451,0.082 1.066,0.082 L10.496,0.082 C11.07,0.082 11.562,-0.41 11.562,-0.984 "/>
</g>

<g fill="none" stroke="#000000" stroke-opacity="1" stroke-width="1" stroke-linecap="square" stroke-linejoin="bevel" transform="matrix(0.5,0,0,0.5,208.025,97.3744)"
font-family="Bravura" font-size="41" font-weight="400" font-style="normal" 
>
<text fill="#000000" fill-opacity="1" stroke="none" xml:space="preserve" x="0" y="0" font-family=".AppleSystemUIFont" font-size="13" font-weight="400" font-style="normal" 
 ></text>
</g>

<g fill="none" stroke="#000000" stroke-opacity="1" stroke-width="1" stroke-linecap="square" stroke-linejoin="bevel" transform="matrix(0.5,0,0,0.5,270.668,89.687)"
font-family="Bravura" font-size="41" font-weight="400" font-style="normal" 
>
</g>

<g fill="#000000" fill-opacity="1" stroke="none" transform="matrix(0.5,0,0,0.5,270.668,89.687)"
font-family="Bravura" font-size="41" font-weight="400" font-style="normal" 
>
<path vector-effect="none" fill-rule="nonzero" d="M6.888,1.845 C6.642,2.665 4.715,3.485 3.772,3.485 C3.526,3.485 3.321,3.403 3.28,3.28 C3.198,3.116 3.157,2.214 3.157,1.23 C3.157,-0.041 3.198,-1.476 3.28,-1.804 C3.362,-2.501 5.248,-3.362 6.273,-3.362 C6.56,-3.362 6.806,-3.28 6.888,-3.116 C6.97,-2.911 7.052,-1.886 7.052,-0.779 C7.052,0.328 6.97,1.476 6.888,1.845 M9.717,-4.838 C10.004,-4.961 10.209,-5.289 10.209,-5.535 L10.209,-8.446 C10.209,-8.651 10.086,-8.774 9.922,-8.774 C9.84,-8.774 9.799,-8.774 9.717,-8.733 C9.717,-8.733 8.897,-8.405 8.692,-8.364 C8.405,-8.364 8.118,-8.569 8.118,-8.897 L8.118,-13.899 C8.118,-14.145 7.872,-14.35 7.544,-14.35 C7.134,-14.35 6.888,-14.145 6.888,-13.899 L6.888,-8.569 C6.847,-8.159 6.724,-7.626 6.355,-7.38 C5.863,-7.093 4.469,-6.519 3.772,-6.355 C3.403,-6.355 3.28,-6.847 3.28,-7.175 L3.28,-12.095 C3.28,-12.341 2.993,-12.546 2.706,-12.546 C2.296,-12.546 2.05,-12.341 2.05,-12.095 L2.05,-6.56 C2.05,-5.986 1.804,-5.576 1.558,-5.453 C1.312,-5.33 0.492,-5.002 0.492,-5.002 C0.205,-4.92 0,-4.592 0,-4.346 L0,-1.435 C0,-1.189 0.123,-1.066 0.328,-1.066 C0.492,-1.066 1.271,-1.435 1.394,-1.517 C1.435,-1.517 1.476,-1.558 1.517,-1.558 C1.804,-1.558 2.05,-1.148 2.05,-0.82 L2.05,3.239 C2.05,3.69 1.845,4.059 1.599,4.182 C1.353,4.264 0.492,4.633 0.492,4.633 C0.205,4.715 0,5.043 0,5.289 L0,8.2 C0,8.446 0.123,8.569 0.328,8.569 C0.369,8.569 0.451,8.528 0.492,8.528 C0.492,8.528 1.066,8.282 1.435,8.159 C1.476,8.118 1.517,8.118 1.558,8.118 C1.845,8.118 2.05,8.569 2.05,8.774 L2.05,13.817 C2.05,14.063 2.296,14.268 2.583,14.268 C2.993,14.268 3.28,14.063 3.28,13.817 L3.28,8.118 C3.28,7.585 3.485,7.298 3.69,7.216 L6.191,6.191 C6.232,6.191 6.314,6.15 6.355,6.15 C6.683,6.15 6.888,6.642 6.888,6.888 L6.888,12.013 C6.888,12.259 7.134,12.464 7.421,12.464 C7.872,12.464 8.118,12.259 8.118,12.013 L8.118,6.191 C8.118,5.863 8.282,5.371 8.569,5.248 C8.856,5.125 9.717,4.797 9.717,4.797 C10.004,4.674 10.209,4.346 10.209,4.1 L10.209,1.189 C10.209,0.984 10.086,0.861 9.922,0.861 C9.84,0.861 9.799,0.861 9.717,0.902 L8.651,1.312 C8.405,1.312 8.118,1.066 8.118,0.574 L8.118,-3.239 C8.118,-3.526 8.323,-4.305 8.651,-4.428 L9.717,-4.838"/>
</g>

<g fill="none" stroke="#000000" stroke-opacity="1" stroke-width="1" stroke-linecap="square" stroke-linejoin="bevel" transform="matrix(0.5,0,0,0.5,270.668,89.687)"
font-family="Bravura" font-size="41" font-weight="400" font-style="normal" 
>
<text fill="#000000" fill-opacity="1" stroke="none" xml:space="preserve" x="0" y="0" font-family=".AppleSystemUIFont" font-size="13" font-weight="400" font-style="normal" 
 ></text>
</g>

<g fill="none" stroke="#000000" stroke-opacity="1" stroke-width="1" stroke-linecap="square" stroke-linejoin="bevel" transform="matrix(0.5,0,0,0.5,277.051,89.687)"
font-family="Bravura" font-size="41" font-weight="400" font-style="normal" 
>
</g>

<g fill="#000000" fill-opacity="1" stroke="none" transform="matrix(0.5,0,0,0.5,277.051,89.687)"
font-family="Bravura" font-size="41" font-weight="400" font-style="normal" 
>
<path vector-effect="none" fill-rule="nonzero" d="M4.428,5.74 C8.487,5.74 13.489,1.968 13.489,-1.927 C13.489,-4.223 11.644,-5.74 9.02,-5.74 C4.018,-5.74 0,-2.009 0,1.927 C0,4.305 1.968,5.74 4.428,5.74 "/>
</g>

<g fill="none" stroke="#000000" stroke-opacity="1" stroke-width="1" stroke-linecap="square" stroke-linejoin="bevel" transform="matrix(0.5,0,0,0.5,277.051,89.687)"
font-family="Bravura" font-size="41" font-weight="400" font-style="normal" 
>
<text fill="#000000" fill-opacity="1" stroke="none" xml:space="preserve" x="0" y="0" font-family=".AppleSystemUIFont" font-size="13" font-weight="400" font-style="normal" 
 ></text>
</g>

<g fill="none" stroke="#000000" stroke-opacity="1" stroke-width="1" stroke-linecap="square" stroke-linejoin="bevel" transform="matrix(0.5,0,0,0.5,311.548,97.3744)"
font-family="Bravura" font-size="41" font-weight="400" font-style="normal" 
>
</g>

<g fill="#000000" fill-opacity="1" stroke="none" transform="matrix(0.5,0,0,0.5,311.548,97.3744)"
font-family="Bravura" font-size="41" font-weight="400" font-style="normal" 
>
<path vector-effect="none" fill-rule="nonzero" d="M3.198,1.558 C3.854,2.378 4.428,3.157 4.961,4.018 C5.043,4.182 5.207,4.51 5.207,4.592 C5.207,4.633 5.207,4.715 5.166,4.756 C5.084,4.92 4.92,4.961 4.715,4.961 C4.551,4.961 4.223,4.879 4.059,4.838 C3.854,4.838 3.608,4.715 3.403,4.715 C1.64,4.715 0.041,6.478 0.041,8.651 C0.041,10.701 1.804,12.71 4.797,15.006 C5.125,15.252 5.535,15.375 5.863,15.375 C6.15,15.375 6.437,15.293 6.478,15.129 C6.519,15.006 6.56,14.924 6.56,14.842 C6.56,14.473 6.232,14.145 5.904,13.858 C5.371,13.858 4.92,12.751 4.838,12.382 C4.715,12.054 4.674,11.685 4.674,11.316 C4.674,9.635 5.535,8.323 7.257,8.323 C8.446,8.323 9.799,8.774 10.455,9.02 C10.496,9.02 10.537,9.061 10.578,9.061 C10.701,9.102 10.783,9.102 10.865,9.102 C10.988,9.102 11.07,9.061 11.07,8.938 C11.07,8.446 10.004,7.093 9.553,6.601 C7.995,4.715 6.724,3.198 6.724,0.902 C6.724,0.738 6.765,0.533 6.765,0.369 C6.929,-2.009 8.405,-3.977 9.471,-5.658 C9.594,-5.863 9.635,-6.068 9.635,-6.273 C9.635,-6.683 9.471,-7.052 9.471,-7.052 C9.471,-7.052 3.403,-14.268 2.706,-14.965 C2.501,-15.17 2.214,-15.293 1.968,-15.293 C1.558,-15.293 1.148,-15.006 1.148,-14.432 C1.148,-14.227 1.189,-14.022 1.312,-13.776 C1.476,-13.325 3.813,-11.234 3.813,-8.282 C3.813,-6.765 3.198,-5.002 1.353,-3.075 C0.943,-2.665 0.779,-2.214 0.779,-1.886 C0.779,-1.312 1.189,-0.902 1.189,-0.902 L3.198,1.558"/>
</g>

<g fill="none" stroke="#000000" stroke-opacity="1" stroke-width="1" stroke-linecap="square" stroke-linejoin="bevel" transform="matrix(0.5,0,0,0.5,311.548,97.3744)"
font-family="Bravura" font-size="41" font-weight="400" font-style="normal" 
>
<text fill="#000000" fill-opacity="1" stroke="none" xml:space="preserve" x="0" y="0" font-family=".AppleSystemUIFont" font-size="13" font-weight="400" font-style="normal" 
 ></text>
</g>

<g fill="none" stroke="#000000" stroke-opacity="1" stroke-width="1" stroke-linecap="square" stroke-linejoin="bevel" transform="matrix(0.5,0,0,0.5,354.783,97.3744)"
font-family="Bravura" font-size="41" font-weight="400" font-style="normal" 
>
</g>

<g fill="#000000" fill-opacity="1" stroke="none" transform="matrix(0.5,0,0,0.5,354.783,97.3744)"
font-family="Bravura" font-size="41" font-weight="400" font-style="normal" 
>
<path vector-effect="none" fill-rule="nonzero" d="M3.198,1.558 C3.854,2.378 4.428,3.157 4.961,4.018 C5.043,4.182 5.207,4.51 5.207,4.592 C5.207,4.633 5.207,4.715 5.166,4.756 C5.084,4.92 4.92,4.961 4.715,4.961 C4.551,4.961 4.223,4.879 4.059,4.838 C3.854,4.838 3.608,4.715 3.403,4.715 C1.64,4.715 0.041,6.478 0.041,8.651 C0.041,10.701 1.804,12.71 4.797,15.006 C5.125,15.252 5.535,15.375 5.863,15.375 C6.15,15.375 6.437,15.293 6.478,15.129 C6.519,15.006 6.56,14.924 6.56,14.842 C6.56,14.473 6.232,14.145 5.904,13.858 C5.371,13.858 4.92,12.751 4.838,12.382 C4.715,12.054 4.674,11.685 4.674,11.316 C4.674,9.635 5.535,8.323 7.257,8.323 C8.446,8.323 9.799,8.774 10.455,9.02 C10.496,9.02 10.537,9.061 10.578,9.061 C10.701,9.102 10.783,9.102 10.865,9.102 C10.988,9.102 11.07,9.061 11.07,8.938 C11.07,8.446 10.004,7.093 9.553,6.601 C7.995,4.715 6.724,3.198 6.724,0.902 C6.724,0.738 6.765,0.533 6.765,0.369 C6.929,-2.009 8.405,-3.977 9.471,-5.658 C9.594,-5.863 9.635,-6.068 9.635,-6.273 C9.635,-6.683 9.471,-7.052 9.471,-7.052 C9.471,-7.052 3.403,-14.268 2.706,-14.965 C2.501,-15.17 2.214,-15.293 1.968,-15.293 C1.558,-15.293 1.148,-15.006 1.148,-14.432 C1.148,-14.227 1.189,-14.022 1.312,-13.776 C1.476,-13.325 3.813,-11.234 3.813,-8.282 C3.813,-6.765 3.198,-5.002 1.353,-3.075 C0.943,-2.665 0.779,-2.214 0.779,-1.886 C0.779,-1.312 1.189,-0.902 1.189,-0.902 L3.198,1.558"/>
</g>

<g fill="none" stroke="#000000" stroke-opacity="1" stroke-width="1" stroke-linecap="square" stroke-linejoin="bevel" transform="matrix(0.5,0,0,0.5,354.783,97.3744)"
font-family="Bravura" font-size="41" font-weight="400" font-style="normal" 
>
<text fill="#000000" fill-opacity="1" stroke="none" xml:space="preserve" x="0" y="0" font-family=".AppleSystemUIFont" font-size="13" font-weight="400" font-style="normal" 
 ></text>
</g>

<g fill="none" stroke="#000000" stroke-opacity="1" stroke-width="1" stroke-linecap="square" stroke-linejoin="bevel" transform="matrix(0.5,0,0,0.5,389.312,92.2495)"
font-family="Bravura" font-size="41" font-weight="400" font-style="normal" 
>
</g>

<g fill="#000000" fill-opacity="1" stroke="none" transform="matrix(0.5,0,0,0.5,389.312,92.2495)"
font-family="Bravura" font-size="41" font-weight="400" font-style="normal" 
>
<path vector-effect="none" fill-rule="nonzero" d="M4.428,5.74 C8.487,5.74 13.489,1.968 13.489,-1.927 C13.489,-4.223 11.644,-5.74 9.02,-5.74 C4.018,-5.74 0,-2.009 0,1.927 C0,4.305 1.968,5.74 4.428,5.74 "/>
</g>

<g fill="none" stroke="#000000" stroke-opacity="1" stroke-width="1" stroke-linecap="square" stroke-linejoin="bevel" transform="matrix(0.5,0,0,0.5,389.312,92.2495)"
font-family="Bravura" font-size="41" font-weight="400" font-style="normal" 
>
<text fill="#000000" fill-opacity="1" stroke="none" xml:space="preserve" x="0" y="0" font-family=".AppleSystemUIFont" font-size="13" font-weight="400" font-style="normal" 
 ></text>
</g>

<g fill="none" stroke="#000000" stroke-opacity="1" stroke-width="1" stroke-linecap="square" stroke-linejoin="bevel" transform="matrix(0.5,0,0,0.5,417.442,92.2495)"
font-family="Bravura" font-size="41" font-weight="400" font-style="normal" 
>
</g>

<g fill="#000000" fill-opacity="1" stroke="none" transform="matrix(0.5,0,0,0.5,417.442,92.2495)"
font-family="Bravura" font-size="41" font-weight="400" font-style="normal" 
>
<path vector-effect="none" fill-rule="nonzero" d="M6.888,1.845 C6.642,2.665 4.715,3.485 3.772,3.485 C3.526,3.485 3.321,3.403 3.28,3.28 C3.198,3.116 3.157,2.214 3.157,1.23 C3.157,-0.041 3.198,-1.476 3.28,-1.804 C3.362,-2.501 5.248,-3.362 6.273,-3.362 C6.56,-3.362 6.806,-3.28 6.888,-3.116 C6.97,-2.911 7.052,-1.886 7.052,-0.779 C7.052,0.328 6.97,1.476 6.888,1.845 M9.717,-4.838 C10.004,-4.961 10.209,-5.289 10.209,-5.535 L10.209,-8.446 C10.209,-8.651 10.086,-8.774 9.922,-8.774 C9.84,-8.774 9.799,-8.774 9.717,-8.733 C9.717,-8.733 8.897,-8.405 8.692,-8.364 C8.405,-8.364 8.118,-8.569 8.118,-8.897 L8.118,-13.899 C8.118,-14.145 7.872,-14.35 7.544,-14.35 C7.134,-14.35 6.888,-14.145 6.888,-13.899 L6.888,-8.569 C6.847,-8.159 6.724,-7.626 6.355,-7.38 C5.863,-7.093 4.469,-6.519 3.772,-6.355 C3.403,-6.355 3.28,-6.847 3.28,-7.175 L3.28,-12.095 C3.28,-12.341 2.993,-12.546 2.706,-12.546 C2.296,-12.546 2.05,-12.341 2.05,-12.095 L2.05,-6.56 C2.05,-5.986 1.804,-5.576 1.558,-5.453 C1.312,-5.33 0.492,-5.002 0.492,-5.002 C0.205,-4.92 0,-4.592 0,-4.346 L0,-1.435 C0,-1.189 0.123,-1.066 0.328,-1.066 C0.492,-1.066 1.271,-1.435 1.394,-1.517 C1.435,-1.517 1.476,-1.558 1.517,-1.558 C1.804,-1.558 2.05,-1.148 2.05,-0.82 L2.05,3.239 C2.05,3.69 1.845,4.059 1.599,4.182 C1.353,4.264 0.492,4.633 0.492,4.633 C0.205,4.715 0,5.043 0,5.289 L0,8.2 C0,8.446 0.123,8.569 0.328,8.569 C0.369,8.569 0.451,8.528 0.492,8.528 C0.492,8.528 1.066,8.282 1.435,8.159 C1.476,8.118 1.517,8.118 1.558,8.118 C1.845,8.118 2.05,8.569 2.05,8.774 L2.05,13.817 C2.05,14.063 2.296,14.268 2.583,14.268 C2.993,14.268 3.28,14.063 3.28,13.817 L3.28,8.118 C3.28,7.585 3.485,7.298 3.69,7.216 L6.191,6.191 C6.232,6.191 6.314,6.15 6.355,6.15 C6.683,6.15 6.888,6.642 6.888,6.888 L6.888,12.013 C6.888,12.259 7.134,12.464 7.421,12.464 C7.872,12.464 8.118,12.259 8.118,12.013 L8.118,6.191 C8.118,5.863 8.282,5.371 8.569,5.248 C8.856,5.125 9.717,4.797 9.717,4.797 C10.004,4.674 10.209,4.346 10.209,4.1 L10.209,1.189 C10.209,0.984 10.086,0.861 9.922,0.861 C9.84,0.861 9.799,0.861 9.717,0.902 L8.651,1.312 C8.405,1.312 8.118,1.066 8.118,0.574 L8.118,-3.239 C8.118,-3.526 8.323,-4.305 8.651,-4.428 L9.717,-4.838"/>
</g>

<g fill="none" stroke="#000000" stroke-opacity="1" stroke-width="1" stroke-linecap="square" stroke-linejoin="bevel" transform="matrix(0.5,0,0,0.5,417.442,92.2495)"
font-family="Bravura" font-size="41" font-weight="400" font-style="normal" 
>
<text fill="#000000" fill-opacity="1" stroke="none" xml:space="preserve" x="0" y="0" font-family=".AppleSystemUIFont" font-size="13" font-weight="400" font-style="normal" 
 ></text>
</g>

<g fill="none" stroke="#000000" stroke-opacity="1" stroke-width="1" stroke-linecap="square" stroke-linejoin="bevel" transform="matrix(0.5,0,0,0.5,423.825,92.2495)"
font-family="Bravura" font-size="41" font-weight="400" font-style="normal" 
>
</g>

<g fill="#000000" fill-opacity="1" stroke="none" transform="matrix(0.5,0,0,0.5,423.825,92.2495)"
font-family="Bravura" font-size="41" font-weight="400" font-style="normal" 
>
<path vector-effect="none" fill-rule="nonzero" d="M4.428,5.74 C8.487,5.74 13.489,1.968 13.489,-1.927 C13.489,-4.223 11.644,-5.74 9.02,-5.74 C4.018,-5.74 0,-2.009 0,1.927 C0,4.305 1.968,5.74 4.428,5.74 "/>
</g>

<g fill="none" stroke="#000000" stroke-opacity="1" stroke-width="1" stroke-linecap="square" stroke-linejoin="bevel" transform="matrix(0.5,0,0,0.5,423.825,92.2495)"
font-family="Bravura" font-size="41" font-weight="400" font-style="normal" 
>
<text fill="#000000" fill-opacity="1" stroke="none" xml:space="preserve" x="0" y="0" font-family=".AppleSystemUIFont" font-size="13" font-weight="400" font-style="normal" 
 ></text>
</g>

<g fill="none" stroke="#000000" stroke-opacity="1" stroke-width="1" stroke-linecap="square" stroke-linejoin="bevel" transform="matrix(0.5,0,0,0.5,458.322,97.3744)"
font-family="Bravura" font-size="41" font-weight="400" font-style="normal" 
>
</g>

<g fill="#000000" fill-opacity="1" stroke="none" transform="matrix(0.5,0,0,0.5,458.322,97.3744)"
font-family="Bravura" font-size="41" font-weight="400" font-style="normal" 
>
<path vector-effect="none" fill-rule="nonzero" d="M3.198,1.558 C3.854,2.378 4.428,3.157 4.961,4.018 C5.043,4.182 5.207,4.51 5.207,4.592 C5.207,4.633 5.207,4.715 5.166,4.756 C5.084,4.92 4.92,4.961 4.715,4.961 C4.551,4.961 4.223,4.879 4.059,4.838 C3.854,4.838 3.608,4.715 3.403,4.715 C1.64,4.715 0.041,6.478 0.041,8.651 C0.041,10.701 1.804,12.71 4.797,15.006 C5.125,15.252 5.535,15.375 5.863,15.375 C6.15,15.375 6.437,15.293 6.478,15.129 C6.519,15.006 6.56,14.924 6.56,14.842 C6.56,14.473 6.232,14.145 5.904,13.858 C5.371,13.858 4.92,12.751 4.838,12.382 C4.715,12.054 4.674,11.685 4.674,11.316 C4.674,9.635 5.535,8.323 7.257,8.323 C8.446,8.323 9.799,8.774 10.455,9.02 C10.496,9.02 10.537,9.061 10.578,9.061 C10.701,9.102 10.783,9.102 10.865,9.102 C10.988,9.102 11.07,9.061 11.07,8.938 C11.07,8.446 10.004,7.093 9.553,6.601 C7.995,4.715 6.724,3.198 6.724,0.902 C6.724,0.738 6.765,0.533 6.765,0.369 C6.929,-2.009 8.405,-3.977 9.471,-5.658 C9.594,-5.863 9.635,-6.068 9.635,-6.273 C9.635,-6.683 9.471,-7.052 9.471,-7.052 C9.471,-7.052 3.403,-14.268 2.706,-14.965 C2.501,-15.17 2.214,-15.293 1.968,-15.293 C1.558,-15.293 1.148,-15.006 1.148,-14.432 C1.148,-14.227 1.189,-14.022 1.312,-13.776 C1.476,-13.325 3.813,-11.234 3.813,-8.282 C3.813,-6.765 3.198,-5.002 1.353,-3.075 C0.943,-2.665 0.779,-2.214 0.779,-1.886 C0.779,-1.312 1.189,-0.902 1.189,-0.902 L3.198,1.558"/>
</g>

<g fill="none" stroke="#000000" stroke-opacity="1" stroke-width="1" stroke-linecap="square" stroke-linejoin="bevel" transform="matrix(0.5,0,0,0.5,458.322,97.3744)"
font-family="Bravura" font-size="41" font-weight="400" font-style="normal" 
>
<text fill="#000000" fill-opacity="1" stroke="none" xml:space="preserve" x="0" y="0" font-family=".AppleSystemUIFont" font-size="13" font-weight="400" font-style="normal" 
 ></text>
</g>

<g fill="none" stroke="#000000" stroke-opacity="1" stroke-width="1" stroke-linecap="square" stroke-linejoin="bevel" transform="matrix(0.5,0,0,0.5,6.88077,107.945)"
font-family="Bravura" font-size="145" font-weight="400" font-style="normal" 
>
</g>

<g fill="#000000" fill-opacity="1" stroke="none" transform="matrix(0.5,0,0,0.5,6.88077,107.945)"
font-family="Bravura" font-size="145" font-weight="400" font-style="normal" 
>
<path vector-effect="none" fill-rule="nonzero" d="M2.9,-72.21 C7.105,-74.82 11.89,-85.115 11.89,-93.67 C11.89,-94.395 11.89,-95.265 11.745,-95.99 C10.73,-104.69 6.38,-118.175 6.38,-126.005 C6.38,-133.545 9.715,-140.795 10.44,-142.1 C10.875,-142.97 11.165,-143.115 11.165,-143.55 C11.165,-143.985 10.73,-144.565 10.295,-144.565 C10.005,-144.565 9.715,-144.275 9.135,-143.55 C5.945,-139.635 2.03,-131.225 2.03,-116.725 C2.03,-102.37 7.105,-96.57 7.105,-87.435 C7.105,-80.62 4.35,-76.85 0.29,-72.21 C2.9,-69.31 7.105,-66.99 7.105,-57.565 C7.105,-47.415 2.03,-38.425 2.03,-27.84 C2.03,-13.34 5.945,-4.93 9.135,-0.87 C9.715,-0.145 10.005,0 10.295,0 C10.73,0 11.165,-0.435 11.165,-0.87 C11.165,-1.305 11.02,-1.595 10.44,-2.465 C9.715,-3.625 6.38,-10.875 6.38,-18.56 C6.38,-26.245 10.73,-39.875 11.745,-48.43 C11.89,-49.155 11.89,-49.88 11.89,-50.75 C11.89,-59.305 7.105,-69.6 2.9,-72.21 "/>
</g>

<g fill="none" stroke="#000000" stroke-opacity="1" stroke-width="1" stroke-linecap="square" stroke-linejoin="bevel" transform="matrix(0.5,0,0,0.5,6.88077,107.945)"
font-family="Bravura" font-size="145" font-weight="400" font-style="normal" 
>
<text fill="#000000" fill-opacity="1" stroke="none" xml:space="preserve" x="0" y="0" font-family=".AppleSystemUIFont" font-size="13" font-weight="400" font-style="normal" 
 ></text>
</g>

<g fill="none" stroke="#000000" stroke-opacity="1" stroke-width="1" stroke-linecap="square" stroke-linejoin="bevel" transform="matrix(0.5,0,0,0.5,17.7886,92.2495)"
font-family="Bravura" font-size="41" font-weight="400" font-style="normal" 
>
</g>

<g fill="#000000" fill-opacity="1" stroke="none" transform="matrix(0.5,0,0,0.5,17.7886,92.2495)"
font-family="Bravura" font-size="41" font-weight="400" font-style="normal" 
>
<path vector-effect="none" fill-rule="nonzero" d="M10.332,-10.742 C3.198,-10.742 0,-5.535 0,-1.599 C0,1.681 1.722,4.51 5.043,4.51 C7.626,4.51 9.389,2.706 9.389,0.164 C9.389,-2.46 7.462,-4.1 5.453,-4.1 C4.346,-4.1 3.936,-3.813 3.403,-3.813 C2.87,-3.813 2.747,-4.141 2.747,-4.551 C2.747,-6.191 5.207,-9.184 9.389,-9.184 C13.735,-9.184 15.621,-4.92 15.621,1.517 C15.621,12.956 9.963,19.352 0.41,24.805 C0.041,25.01 -0.205,25.215 -0.205,25.543 C-0.205,25.789 -0.041,26.035 0.328,26.035 C0.533,26.035 0.779,25.953 1.025,25.83 C11.111,20.91 21.771,13.612 21.771,1.148 C21.771,-5.986 17.425,-10.742 10.332,-10.742 M25.83,2.911 C24.559,2.911 23.616,3.854 23.616,5.125 C23.616,6.396 24.559,7.339 25.83,7.339 C27.101,7.339 28.044,6.396 28.044,5.125 C28.044,3.854 27.101,2.911 25.83,2.911 M25.789,-7.38 C24.518,-7.38 23.534,-6.396 23.534,-5.125 C23.534,-3.854 24.518,-2.87 25.789,-2.87 C27.06,-2.87 28.044,-3.854 28.044,-5.125 C28.044,-6.396 27.06,-7.38 25.789,-7.38 "/>
</g>

<g fill="none" stroke="#000000" stroke-opacity="1" stroke-width="1" stroke-linecap="square" stroke-linejoin="bevel" transform="matrix(0.5,0,0,0.5,17.7886,92.2495)"
font-family="Bravura" font-size="41" font-weight="400" font-style="normal" 
>
<text fill="#000000" fill-opacity="1" stroke="none" xml:space="preserve" x="0" y="0" font-family=".AppleSystemUIFont" font-size="13" font-weight="400" font-style="normal" 
 ></text>
</g>

<g fill="none" stroke="#000000" stroke-opacity="1" stroke-width="1" stroke-linecap="square" stroke-linejoin="bevel" transform="matrix(0.5,0,0,0.5,17.687,51.2497)"
font-family="Bravura" font-size="41" font-weight="400" font-style="normal" 
>
</g>

<g fill="#000000" fill-opacity="1" stroke="none" transform="matrix(0.5,0,0,0.5,17.687,51.2497)"
font-family="Bravura" font-size="41" font-weight="400" font-style="normal" 
>
<path vector-effect="none" fill-rule="nonzero" d="M14.801,-10.742 C14.924,-9.963 14.924,-10.004 14.186,-9.758 C10.578,-8.528 8.241,-5.289 8.241,-1.804 C8.241,1.886 10.168,4.51 12.956,5.453 C13.284,5.576 13.776,5.699 14.063,5.699 C14.391,5.699 14.555,5.494 14.555,5.248 C14.555,4.961 14.227,4.838 13.94,4.715 C12.218,3.977 10.988,2.214 10.988,0.328 C10.988,-2.009 12.587,-3.772 15.088,-4.469 C15.744,-4.633 15.826,-4.592 15.908,-4.141 L17.958,8.077 C18.04,8.528 17.999,8.528 17.384,8.651 C16.728,8.774 15.908,8.856 15.088,8.856 C7.913,8.856 3.28,4.879 3.28,-0.82 C3.28,-3.239 3.69,-6.478 7.093,-10.332 C9.553,-13.079 11.439,-14.596 13.366,-16.154 C13.776,-16.482 13.858,-16.441 13.94,-15.99 L14.801,-10.742 M19.27,-38.663 C20.623,-38.663 21.73,-37.556 21.73,-35.301 C21.73,-30.75 17.835,-27.06 14.596,-24.231 C14.309,-23.985 14.145,-24.026 14.063,-24.559 C13.899,-25.625 13.817,-27.019 13.817,-28.331 C13.817,-34.727 16.769,-38.663 19.27,-38.663 M17.63,-4.223 C17.548,-4.715 17.589,-4.838 18.081,-4.797 C21.402,-4.51 24.149,-1.722 24.149,1.886 C24.149,4.469 22.591,6.56 20.295,7.708 C19.803,7.954 19.721,7.954 19.639,7.462 L17.63,-4.223 M15.416,-17.015 C15.334,-17.507 15.416,-17.548 15.662,-17.794 C20.09,-21.935 23.452,-27.142 23.452,-33.415 C23.452,-36.982 22.468,-40.508 20.787,-42.968 C20.172,-43.87 19.106,-45.018 18.655,-45.018 C18.081,-45.018 16.81,-43.952 15.99,-43.05 C12.956,-39.688 11.972,-34.563 11.972,-30.299 C11.972,-27.921 12.259,-25.256 12.546,-23.575 C12.628,-23.083 12.669,-23.001 12.177,-22.591 C6.273,-17.712 0,-11.849 0,-3.567 C0,3.567 4.879,10.332 14.924,10.332 C15.867,10.332 16.933,10.25 17.753,10.086 C18.204,10.004 18.286,9.963 18.368,10.455 C18.86,13.202 19.475,16.769 19.475,18.696 C19.475,24.764 15.375,25.502 12.956,25.502 C10.742,25.502 9.676,24.846 9.676,24.313 C9.676,24.026 10.045,23.903 10.988,23.616 C12.259,23.247 13.735,22.14 13.735,19.762 C13.735,17.507 12.3,15.58 9.799,15.58 C7.052,15.58 5.412,17.753 5.412,20.295 C5.412,22.96 7.011,26.978 13.202,26.978 C15.949,26.978 21.279,25.748 21.279,18.778 C21.279,16.441 20.541,12.546 20.09,10.004 C20.008,9.512 20.049,9.553 20.623,9.307 C24.764,7.667 27.511,4.182 27.511,-0.451 C27.511,-5.699 23.657,-10.332 17.63,-10.332 C16.564,-10.332 16.564,-10.332 16.441,-11.07 L15.416,-17.015"/>
</g>

<g fill="none" stroke="#000000" stroke-opacity="1" stroke-width="1" stroke-linecap="square" stroke-linejoin="bevel" transform="matrix(0.5,0,0,0.5,17.687,51.2497)"
font-family="Bravura" font-size="41" font-weight="400" font-style="normal" 
>
<text fill="#000000" fill-opacity="1" stroke="none" xml:space="preserve" x="0" y="0" font-family=".AppleSystemUIFont" font-size="13" font-weight="400" font-style="normal" 
 ></text>
</g>

<g fill="none" stroke="#000000" stroke-opacity="1" stroke-width="1" stroke-linecap="square" stroke-linejoin="bevel" transform="matrix(0.5,0,0,0.5,493.366,43.5623)"
font-family="Bravura" font-size="41" font-weight="400" font-style="normal" 
>
</g>

<g fill="#000000" fill-opacity="1" stroke="none" transform="matrix(0.5,0,0,0.5,493.366,43.5623)"
font-family="Bravura" font-size="41" font-weight="400" font-style="normal" 
>
<path vector-effect="none" fill-rule="nonzero" d="M2.05,-2.05 C0.902,-2.05 0,-1.148 0,0 C0,1.148 0.902,2.05 2.05,2.05 C3.157,2.05 4.1,1.148 4.1,0 C4.1,-1.148 3.157,-2.05 2.05,-2.05 "/>
</g>

<g fill="none" stroke="#000000" stroke-opacity="1" stroke-width="1" stroke-linecap="square" stroke-linejoin="bevel" transform="matrix(0.5,0,0,0.5,493.366,43.5623)"
font-family="Bravura" font-size="41" font-weight="400" font-style="normal" 
>
<text fill="#000000" fill-opacity="1" stroke="none" xml:space="preserve" x="0" y="0" font-family=".AppleSystemUIFont" font-size="13" font-weight="400" font-style="normal" 
 ></text>
</g>

<g fill="none" stroke="#000000" stroke-opacity="1" stroke-width="1" stroke-linecap="square" stroke-linejoin="bevel" transform="matrix(0.5,0,0,0.5,493.366,48.6872)"
font-family="Bravura" font-size="41" font-weight="400" font-style="normal" 
>
</g>

<g fill="#000000" fill-opacity="1" stroke="none" transform="matrix(0.5,0,0,0.5,493.366,48.6872)"
font-family="Bravura" font-size="41" font-weight="400" font-style="normal" 
>
<path vector-effect="none" fill-rule="nonzero" d="M2.05,-2.05 C0.902,-2.05 0,-1.148 0,0 C0,1.148 0.902,2.05 2.05,2.05 C3.157,2.05 4.1,1.148 4.1,0 C4.1,-1.148 3.157,-2.05 2.05,-2.05 "/>
</g>

<g fill="none" stroke="#000000" stroke-opacity="1" stroke-width="1" stroke-linecap="square" stroke-linejoin="bevel" transform="matrix(0.5,0,0,0.5,493.366,48.6872)"
font-family="Bravura" font-size="41" font-weight="400" font-style="normal" 
>
<text fill="#000000" fill-opacity="1" stroke="none" xml:space="preserve" x="0" y="0" font-family=".AppleSystemUIFont" font-size="13" font-weight="400" font-style="normal" 
 ></text>
</g>

<g fill="none" stroke="#000000" stroke-opacity="1" stroke-width="1" stroke-linecap="square" stroke-linejoin="bevel" transform="matrix(0.5,0,0,0.5,493.366,94.812)"
font-family="Bravura" font-size="41" font-weight="400" font-style="normal" 
>
</g>

<g fill="#000000" fill-opacity="1" stroke="none" transform="matrix(0.5,0,0,0.5,493.366,94.812)"
font-family="Bravura" font-size="41" font-weight="400" font-style="normal" 
>
<path vector-effect="none" fill-rule="nonzero" d="M2.05,-2.05 C0.902,-2.05 0,-1.148 0,0 C0,1.148 0.902,2.05 2.05,2.05 C3.157,2.05 4.1,1.148 4.1,0 C4.1,-1.148 3.157,-2.05 2.05,-2.05 "/>
</g>

<g fill="none" stroke="#000000" stroke-opacity="1" stroke-width="1" stroke-linecap="square" stroke-linejoin="bevel" transform="matrix(0.5,0,0,0.5,493.366,94.812)"
font-family="Bravura" font-size="41" font-weight="400" font-style="normal" 
>
<text fill="#000000" fill-opacity="1" stroke="none" xml:space="preserve" x="0" y="0" font-family=".AppleSystemUIFont" font-size="13" font-weight="400" font-style="normal" 
 ></text>
</g>

<g fill="none" stroke="#000000" stroke-opacity="1" stroke-width="1" stroke-linecap="square" stroke-linejoin="bevel" transform="matrix(0.5,0,0,0.5,493.366,99.9369)"
font-family="Bravura" font-size="41" font-weight="400" font-style="normal" 
>
</g>

<g fill="#000000" fill-opacity="1" stroke="none" transform="matrix(0.5,0,0,0.5,493.366,99.9369)"
font-family="Bravura" font-size="41" font-weight="400" font-style="normal" 
>
<path vector-effect="none" fill-rule="nonzero" d="M2.05,-2.05 C0.902,-2.05 0,-1.148 0,0 C0,1.148 0.902,2.05 2.05,2.05 C3.157,2.05 4.1,1.148 4.1,0 C4.1,-1.148 3.157,-2.05 2.05,-2.05 "/>
</g>

<g fill="none" stroke="#000000" stroke-opacity="1" stroke-width="1" stroke-linecap="square" stroke-linejoin="bevel" transform="matrix(0.5,0,0,0.5,493.366,99.9369)"
font-family="Bravura" font-size="41" font-weight="400" font-style="normal" 
>
<text fill="#000000" fill-opacity="1" stroke="none" xml:space="preserve" x="0" y="0" font-family=".AppleSystemUIFont" font-size="13" font-weight="400" font-style="normal" 
 ></text>
</g>

<g fill="none" stroke="#000000" stroke-opacity="1" stroke-width="1" stroke-linecap="square" stroke-linejoin="bevel" transform="matrix(0.5,0,0,0.5,45.6416,43.5623)"
font-family="Bravura" font-size="41" font-weight="400" font-style="normal" 
>
</g>

<g fill="#000000" fill-opacity="1" stroke="none" transform="matrix(0.5,0,0,0.5,45.6416,43.5623)"
font-family="Bravura" font-size="41" font-weight="400" font-style="normal" 
>
<path vector-effect="none" fill-rule="nonzero" d="M2.05,-2.05 C0.902,-2.05 0,-1.148 0,0 C0,1.148 0.902,2.05 2.05,2.05 C3.157,2.05 4.1,1.148 4.1,0 C4.1,-1.148 3.157,-2.05 2.05,-2.05 "/>
</g>

<g fill="none" stroke="#000000" stroke-opacity="1" stroke-width="1" stroke-linecap="square" stroke-linejoin="bevel" transform="matrix(0.5,0,0,0.5,45.6416,43.5623)"
font-family="Bravura" font-size="41" font-weight="400" font-style="normal" 
>
<text fill="#000000" fill-opacity="1" stroke="none" xml:space="preserve" x="0" y="0" font-family=".AppleSystemUIFont" font-size="13" font-weight="400" font-style="normal" 
 ></text>
</g>

<g fill="none" stroke="#000000" stroke-opacity="1" stroke-width="1" stroke-linecap="square" stroke-linejoin="bevel" transform="matrix(0.5,0,0,0.5,45.6416,48.6872)"
font-family="Bravura" font-size="41" font-weight="400" font-style="normal" 
>
</g>

<g fill="#000000" fill-opacity="1" stroke="none" transform="matrix(0.5,0,0,0.5,45.6416,48.6872)"
font-family="Bravura" font-size="41" font-weight="400" font-style="normal" 
>
<path vector-effect="none" fill-rule="nonzero" d="M2.05,-2.05 C0.902,-2.05 0,-1.148 0,0 C0,1.148 0.902,2.05 2.05,2.05 C3.157,2.05 4.1,1.148 4.1,0 C4.1,-1.148 3.157,-2.05 2.05,-2.05 "/>
</g>

<g fill="none" stroke="#000000" stroke-opacity="1" stroke-width="1" stroke-linecap="square" stroke-linejoin="bevel" transform="matrix(0.5,0,0,0.5,45.6416,48.6872)"
font-family="Bravura" font-size="41" font-weight="400" font-style="normal" 
>
<text fill="#000000" fill-opacity="1" stroke="none" xml:space="preserve" x="0" y="0" font-family=".AppleSystemUIFont" font-size="13" font-weight="400" font-style="normal" 
 ></text>
</g>

<g fill="none" stroke="#000000" stroke-opacity="1" stroke-width="1" stroke-linecap="square" stroke-linejoin="bevel" transform="matrix(0.5,0,0,0.5,45.6416,94.812)"
font-family="Bravura" font-size="41" font-weight="400" font-style="normal" 
>
</g>

<g fill="#000000" fill-opacity="1" stroke="none" transform="matrix(0.5,0,0,0.5,45.6416,94.812)"
font-family="Bravura" font-size="41" font-weight="400" font-style="normal" 
>
<path vector-effect="none" fill-rule="nonzero" d="M2.05,-2.05 C0.902,-2.05 0,-1.148 0,0 C0,1.148 0.902,2.05 2.05,2.05 C3.157,2.05 4.1,1.148 4.1,0 C4.1,-1.148 3.157,-2.05 2.05,-2.05 "/>
</g>

<g fill="none" stroke="#000000" stroke-opacity="1" stroke-width="1" stroke-linecap="square" stroke-linejoin="bevel" transform="matrix(0.5,0,0,0.5,45.6416,94.812)"
font-family="Bravura" font-size="41" font-weight="400" font-style="normal" 
>
<text fill="#000000" fill-opacity="1" stroke="none" xml:space="preserve" x="0" y="0" font-family=".AppleSystemUIFont" font-size="13" font-weight="400" font-style="normal" 
 ></text>
</g>

<g fill="none" stroke="#000000" stroke-opacity="1" stroke-width="1" stroke-linecap="square" stroke-linejoin="bevel" transform="matrix(0.5,0,0,0.5,45.6416,99.9369)"
font-family="Bravura" font-size="41" font-weight="400" font-style="normal" 
>
</g>

<g fill="#000000" fill-opacity="1" stroke="none" transform="matrix(0.5,0,0,0.5,45.6416,99.9369)"
font-family="Bravura" font-size="41" font-weight="400" font-style="normal" 
>
<path vector-effect="none" fill-rule="nonzero" d="M2.05,-2.05 C0.902,-2.05 0,-1.148 0,0 C0,1.148 0.902,2.05 2.05,2.05 C3.157,2.05 4.1,1.148 4.1,0 C4.1,-1.148 3.157,-2.05 2.05,-2.05 "/>
</g>

<g fill="none" stroke="#000000" stroke-opacity="1" stroke-width="1" stroke-linecap="square" stroke-linejoin="bevel" transform="matrix(0.5,0,0,0.5,45.6416,99.9369)"
font-family="Bravura" font-size="41" font-weight="400" font-style="normal" 
>
<text fill="#000000" fill-opacity="1" stroke="none" xml:space="preserve" x="0" y="0" font-family=".AppleSystemUIFont" font-size="13" font-weight="400" font-style="normal" 
 ></text>
</g>

<g fill="none" stroke="#000000" stroke-opacity="1" stroke-width="0.614996" stroke-linecap="butt" stroke-linejoin="miter" stroke-miterlimit="2" transform="matrix(1,0,0,1,-2562,-60)"
font-family="Bravura" font-size="41" font-weight="400" font-style="normal" 
>
</g>

<g fill="none" stroke="#000000" stroke-opacity="1" stroke-width="0.614996" stroke-linecap="butt" stroke-linejoin="miter" stroke-miterlimit="2" transform="matrix(0.5,0,0,0.5,208.025,8.24989)"
font-family="Bravura" font-size="41" font-weight="400" font-style="normal" 
>
</g>

<g fill="none" stroke="#000000" stroke-opacity="1" stroke-width="1" stroke-linecap="square" stroke-linejoin="bevel" transform="matrix(0.5,0,0,0.5,208.025,8.24989)"
font-family="Bravura" font-size="41" font-weight="400" font-style="normal" 
>
<text fill="#000000" fill-opacity="1" stroke="none" xml:space="preserve" x="0" y="24.5" font-family="Academico" font-size="24.5999" font-weight="400" font-style="normal" 
 >12 Tone Row</text>
</g>

<g fill="none" stroke="#000000" stroke-opacity="1" stroke-width="0.614996" stroke-linecap="butt" stroke-linejoin="miter" stroke-miterlimit="2" transform="matrix(0.5,0,0,0.5,208.025,8.24989)"
font-family="Bravura" font-size="41" font-weight="400" font-style="normal" 
>
</g>

<g fill="none" stroke="#000000" stroke-opacity="1" stroke-width="0.614996" stroke-linecap="butt" stroke-linejoin="miter" stroke-miterlimit="2" transform="matrix(1,0,0,1,-2562,-60)"
font-family="Bravura" font-size="41" font-weight="400" font-style="normal" 
>
</g>

<g fill="none" stroke="#000000" stroke-opacity="1" stroke-width="0.614996" stroke-linecap="butt" stroke-linejoin="miter" stroke-miterlimit="2" transform="matrix(0.5,0,0,0.5,-0.2504,65.0699)"
font-family="Bravura" font-size="41" font-weight="400" font-style="normal" 
>
</g>

<g fill="none" stroke="#000000" stroke-opacity="1" stroke-width="0.614996" stroke-linecap="butt" stroke-linejoin="miter" stroke-miterlimit="2" transform="matrix(0.5,0,0,0.5,-0.2504,65.0699)"
font-family="Bravura" font-size="41" font-weight="400" font-style="normal" 
>
</g>

<g fill="none" stroke="#000000" stroke-opacity="1" stroke-width="0.614996" stroke-linecap="butt" stroke-linejoin="miter" stroke-miterlimit="2" transform="matrix(1,0,0,1,-2562,-60)"
font-family="Bravura" font-size="41" font-weight="400" font-style="normal" 
>
</g>

<g fill="none" stroke="#000000" stroke-opacity="1" stroke-width="0.614996" stroke-linecap="butt" stroke-linejoin="miter" stroke-miterlimit="2" transform="matrix(0.5,0,0,0.5,15.1245,16.8124)"
font-family="Bravura" font-size="41" font-weight="400" font-style="normal" 
>
</g>

<g fill="none" stroke="#000000" stroke-opacity="1" stroke-width="1" stroke-linecap="square" stroke-linejoin="bevel" transform="matrix(0.5,0,0,0.5,15.1245,16.8124)"
font-family="Bravura" font-size="41" font-weight="400" font-style="normal" 
>
<text fill="#000000" fill-opacity="1" stroke="none" xml:space="preserve" x="0" y="17.625" font-family="Academico" font-size="18.4499" font-weight="400" font-style="italic" 
 >61</text>
</g>

<g fill="none" stroke="#000000" stroke-opacity="1" stroke-width="0.614996" stroke-linecap="butt" stroke-linejoin="miter" stroke-miterlimit="2" transform="matrix(0.5,0,0,0.5,15.1245,16.8124)"
font-family="Bravura" font-size="41" font-weight="400" font-style="normal" 
>
</g>

<g fill="none" stroke="#000000" stroke-opacity="1" stroke-width="0.614996" stroke-linecap="butt" stroke-linejoin="miter" stroke-miterlimit="2" transform="matrix(1,0,0,1,-2562,-60)"
font-family="Bravura" font-size="41" font-weight="400" font-style="normal" 
>
</g>

<g fill="none" stroke="#000000" stroke-opacity="1" stroke-width="2" stroke-linecap="butt" stroke-linejoin="miter" stroke-miterlimit="2" transform="matrix(1,0,0,1,-2562,-60)"
font-family="Bravura" font-size="41" font-weight="400" font-style="normal" 
>
</g>
</g>
</svg>
