<?xml version="1.0" encoding="UTF-8" standalone="no"?>
<!DOCTYPE svg PUBLIC "-//W3C//DTD SVG 1.1//EN"
 "http://www.w3.org/Graphics/SVG/1.1/DTD/svg11.dtd">
<!-- Generated by graphviz version 12.2.1 (20241206.2353)
 -->
<!-- Title: D Pages: 1 -->
<svg width="455pt" height="182pt"
 viewBox="0.00 0.00 455.00 181.50" xmlns="http://www.w3.org/2000/svg" xmlns:xlink="http://www.w3.org/1999/xlink">
<g id="graph0" class="graph" transform="scale(1 1) rotate(0) translate(4 177.5)">
<title>D</title>
<polygon fill="white" stroke="none" points="-4,4 -4,-177.5 451,-177.5 451,4 -4,4"/>
<g id="clust1" class="cluster">
<title>cluster_p</title>
<polygon fill="none" stroke="black" points="8,-8 8,-165.5 439,-165.5 439,-8 8,-8"/>
<text text-anchor="middle" x="223.5" y="-148.2" font-family="Times,serif" font-size="14.00">Parent</text>
</g>
<g id="clust2" class="cluster">
<title>cluster_c1</title>
<polygon fill="none" stroke="black" points="16,-16 16,-133 353,-133 353,-16 16,-16"/>
<text text-anchor="middle" x="184.5" y="-115.7" font-family="Times,serif" font-size="14.00">Child one</text>
</g>
<g id="clust3" class="cluster">
<title>cluster_gc_1</title>
<polygon fill="none" stroke="black" points="24,-24 24,-100.5 131,-100.5 131,-24 24,-24"/>
<text text-anchor="middle" x="77.5" y="-83.2" font-family="Times,serif" font-size="14.00">Grand&#45;Child one</text>
</g>
<g id="clust4" class="cluster">
<title>cluster_gc_2</title>
<polygon fill="none" stroke="black" points="139,-24 139,-100.5 281,-100.5 281,-24 139,-24"/>
<text text-anchor="middle" x="210" y="-83.2" font-family="Times,serif" font-size="14.00">Grand&#45;Child two</text>
</g>
<g id="clust5" class="cluster">
<title>cluster_c2</title>
<polygon fill="none" stroke="black" points="361,-24 361,-100.5 431,-100.5 431,-24 361,-24"/>
<text text-anchor="middle" x="396" y="-83.2" font-family="Times,serif" font-size="14.00">Child two</text>
</g>
<!-- a -->
<g id="node1" class="node">
<title>a</title>
<ellipse fill="none" stroke="black" cx="318" cy="-50" rx="27" ry="18"/>
<text text-anchor="middle" x="318" y="-44.95" font-family="Times,serif" font-size="14.00">a</text>
</g>
<!-- b -->
<g id="node2" class="node">
<title>b</title>
<ellipse fill="none" stroke="black" cx="77" cy="-50" rx="27" ry="18"/>
<text text-anchor="middle" x="77" y="-44.95" font-family="Times,serif" font-size="14.00">b</text>
</g>
<!-- c -->
<g id="node3" class="node">
<title>c</title>
<ellipse fill="none" stroke="black" cx="174" cy="-50" rx="27" ry="18"/>
<text text-anchor="middle" x="174" y="-44.95" font-family="Times,serif" font-size="14.00">c</text>
</g>
<!-- d -->
<g id="node4" class="node">
<title>d</title>
<ellipse fill="none" stroke="black" cx="246" cy="-50" rx="27" ry="18"/>
<text text-anchor="middle" x="246" y="-44.95" font-family="Times,serif" font-size="14.00">d</text>
</g>
<!-- e -->
<g id="node5" class="node">
<title>e</title>
<ellipse fill="none" stroke="black" cx="396" cy="-50" rx="27" ry="18"/>
<text text-anchor="middle" x="396" y="-44.95" font-family="Times,serif" font-size="14.00">e</text>
</g>
</g>
</svg>
